# xmcd
#
# Track frame offsets: 
#        150
#        18507
#        39871
#        56580
#        80614
#        103443
#        122192
#        145995
#        168627
#        184841
#        208886
#        232766
#        253613
#        274766
#        292544
#        311457
#        332898
#
# Disc length: 4735 seconds
#
# Revision: 0
# Processed by: cddbd v1.5.2PL0 Copyright (c) Steve Scherf et al.
# Submitted via: ExactAudioCopy v0.99pb4
#
DISCID=f6127d11
DTITLE=Various Artist - Super Blues Ballads CD2
DYEAR=2005
DGENRE=Blues
TTITLE0=Gary Moore - Still Got The Blues
TTITLE1=John Lee Hooker - Chill Out
TTITLE2=Leonard Cohen - The Future
TTITLE3=Eric Clapton - My Father's Eyes
TTITLE4=Johnny Lang - Darker Side
TTITLE5=Chris Rea - Heaven
TTITLE6=Tony Joe White - Lake Placid Blues
TTITLE7=Joe Cocker - Unchain My Heart
TTITLE8=Santana - Black Magic Woman
TTITLE9=Mark Knopfler and James Tailor - Sailing To Philadelphia
TTITLE10=John Mayall - If I Don't Get Home
TTITLE11=ZZ Top - Blue Jean Blues
TTITLE12=Dave Maniketti - Man's World
TTITLE13=Vickie Carrico - Hallo Darkness
TTITLE14=Tim Gonzales - Summer Time
TTITLE15=Vargas Blues Band - Del Sur
TTITLE16=B.B.King and Tracy Chapman - The Thrill is Gone
EXTD=
EXTT0=
EXTT1=
EXTT2=
EXTT3=
EXTT4=
EXTT5=
EXTT6=
EXTT7=
EXTT8=
EXTT9=
EXTT10=
EXTT11=
EXTT12=
EXTT13=
EXTT14=
EXTT15=
EXTT16=
PLAYORDER=
